<svg width="64" height="64" xmlns="http://www.w3.org/2000/svg">

 <g>
  <title>background</title>
  <rect fill="none" id="canvas_background" height="402" width="582" y="-1" x="-1"/>
 </g>
 <g>
  <title>Layer 1</title>
  <rect stroke="null" id="svg_28" height="65.773809" width="66.36905" y="-0.8125" x="-1.110118" fill-opacity="null" stroke-opacity="null" stroke-width="null" fill="#4D4D4D"/>
  <path id="svg_10" fill-rule="evenodd" clip-rule="evenodd" fill="#E6E6E6" d="m40,22c-4.418,0 -8,3.582 -8,8c0,-4.418 -3.582,-8 -8,-8s-8,3.582 -8,8c0,4.419 3.582,8.001 8,8.001c1.933,0 3.705,-0.686 5.088,-1.826l2.912,5.825l2.912,-5.825c1.383,1.141 3.155,1.826 5.088,1.826c4.418,0 8,-3.582 8,-8.001c0,-4.418 -3.582,-8 -8,-8z"/>
  <path id="svg_12" fill-rule="evenodd" clip-rule="evenodd" fill="#4D4D4D" d="m24,26.065476c-2.209,0 -4,1.791 -4,4s1.791,4 4,4s4,-1.791 4,-4s-1.791,-4 -4,-4zm16,0c-2.209,0 -4,1.791 -4,4s1.791,4 4,4s4,-1.791 4,-4s-1.791,-4 -4,-4z"/>
 </g>
</svg>