<svg width="128" height="128" xmlns="http://www.w3.org/2000/svg">

 <g>
  <title>background</title>
  <rect fill="none" id="canvas_background" height="402" width="582" y="-1" x="-1"/>
 </g>
 <g>
  <title>Layer 1</title>
  <path id="svg_2" fill-rule="evenodd" fill="#2B2D03" d="m62,60.9c-0.2,0 -0.4,-0.1 -0.6,-0.1c-0.5,-0.1 -1.1,-0.3 -1.9,-0.5c-0.8,-0.3 -1.3,-0.6 -1.6,-1c-0.3,-0.4 -0.4,-1 -0.4,-1.6c0,-1.4 0.6,-2.5 1.9,-3.4c0.7,-0.5 1.6,-0.9 2.5,-1.1l0,7.7l0.1,0zm4,5.3c1.3,0.3 2.4,0.7 3.1,1.1c1.2,0.6 1.7,1.7 1.7,3.2c0,1.4 -0.6,2.5 -1.9,3.4c-0.8,0.5 -1.8,0.9 -2.9,1.1l0,-8.8zm15.1,-19.3c-4.4,-4.4 -10.4,-7.1 -17.1,-7.1c-6.7,0 -12.8,2.7 -17.1,7.1c-4.4,4.4 -7.1,10.4 -7.1,17.1c0,6.7 2.7,12.8 7.1,17.1c4.4,4.4 10.4,7.1 17.1,7.1c6.7,0 12.8,-2.7 17.1,-7.1c4.4,-4.4 7.1,-10.4 7.1,-17.1c0,-6.7 -2.7,-12.8 -7.1,-17.1zm-17.1,-11.2c7.8,0 14.9,3.2 20,8.3c5.1,5.1 8.3,12.2 8.3,20c0,7.8 -3.2,14.9 -8.3,20c-5.1,5.1 -12.2,8.3 -20,8.3c-7.8,0 -14.9,-3.2 -20,-8.3c-5.1,-5.1 -8.3,-12.2 -8.3,-20c0,-7.8 3.2,-14.9 8.3,-20c5.1,-5.1 12.2,-8.3 20,-8.3zm22.2,6.1c-5.7,-5.7 -13.5,-9.2 -22.2,-9.2c-8.7,0 -16.5,3.5 -22.2,9.2c-5.7,5.7 -9.2,13.5 -9.2,22.2c0,8.7 3.5,16.5 9.2,22.2c5.7,5.7 13.5,9.2 22.2,9.2c8.7,0 16.5,-3.5 22.2,-9.2c5.7,-5.7 9.2,-13.5 9.2,-22.2c0,-8.7 -3.5,-16.5 -9.2,-22.2zm-22.2,-13.3c9.8,0 18.7,4 25.1,10.4c6.4,6.4 10.4,15.3 10.4,25.1c0,9.8 -4,18.7 -10.4,25.1c-6.4,6.4 -15.3,10.4 -25.1,10.4c-9.8,0 -18.7,-4 -25.1,-10.4c-6.4,-6.4 -10.4,-15.3 -10.4,-25.1c0,-9.8 4,-18.7 10.4,-25.1c6.4,-6.4 15.3,-10.4 25.1,-10.4zm-2,19.9c-2.2,0.3 -4.2,1.2 -6,2.5c-2.4,1.8 -3.6,4.1 -3.6,6.8c0,1.2 0.2,2.2 0.7,3.1c0.5,0.9 1,1.6 1.7,2.1c0.6,0.5 1.5,1 2.6,1.4c1.1,0.4 2.1,0.7 2.9,0.8c0.5,0.1 1,0.2 1.7,0.3l0,9.3c-1.2,-0.2 -2.5,-0.5 -3.9,-0.9c-2.2,-0.7 -3.4,-1 -3.8,-1c-1.6,0 -2.3,0.9 -2.3,2.8c0,1 1.3,2 3.8,2.8c2,0.6 4.1,1 6.2,1.2l0,3.1c0,1.1 0.9,2 2,2c1.1,0 2,-0.9 2,-2l0,-3.1c2.6,-0.3 4.9,-1.1 6.6,-2.4c2.3,-1.7 3.4,-4 3.4,-7c0,-2.8 -1,-4.9 -3,-6.2c-1.8,-1.2 -4.1,-2 -7.1,-2.5l0,-8.6c1.2,0.1 2.4,0.4 3.5,0.7c1.7,0.6 2.8,0.8 3.2,0.8c1.5,0 2.3,-0.8 2.3,-2.5c0,-0.8 -0.6,-1.5 -1.8,-2.1c-1.9,-0.9 -4.3,-1.4 -7.1,-1.6l0,-3.1c0,-1.1 -0.9,-2 -2,-2c-1.1,0 -2,0.9 -2,2l0,3.3z" clip-rule="evenodd"/>
  <path id="svg_3" fill-rule="evenodd" fill="#FFE64C" d="m46.9,46.9c-4.4,4.4 -7.1,10.4 -7.1,17.1c0,6.7 2.7,12.8 7.1,17.1c4.4,4.4 10.4,7.1 17.1,7.1c6.7,0 12.8,-2.7 17.1,-7.1c4.4,-4.4 7.1,-10.4 7.1,-17.1c0,-6.7 -2.7,-12.8 -7.1,-17.1c-4.4,-4.4 -10.4,-7.1 -17.1,-7.1c-6.7,0 -12.8,2.7 -17.1,7.1zm19.1,6l0,8.6c3,0.5 5.3,1.3 7.1,2.5c2,1.3 3,3.4 3,6.2c0,3 -1.1,5.3 -3.4,7c-1.8,1.3 -4,2.1 -6.6,2.4l0,3.1c0,1.1 -0.9,2 -2,2c-1.1,0 -2,-0.9 -2,-2l0,-3.1c-2.1,-0.1 -4.2,-0.5 -6.2,-1.2c-2.5,-0.8 -3.8,-1.8 -3.8,-2.8c0,-1.9 0.8,-2.8 2.3,-2.8c0.4,0 1.6,0.3 3.8,1c1.4,0.4 2.6,0.7 3.9,0.9l0,-9.3c-0.6,-0.1 -1.2,-0.2 -1.7,-0.3c-0.8,-0.2 -1.8,-0.4 -2.9,-0.8c-1.1,-0.4 -2,-0.9 -2.6,-1.4c-0.6,-0.5 -1.2,-1.2 -1.7,-2.1c-0.5,-0.9 -0.7,-1.9 -0.7,-3.1c0,-2.7 1.2,-5 3.6,-6.8c1.8,-1.3 3.8,-2.2 6,-2.5l0,-3.2c0,-1.1 0.9,-2 2,-2c1.1,0 2,0.9 2,2l0,3.1c2.8,0.1 5.2,0.7 7.1,1.6c1.2,0.6 1.8,1.3 1.8,2.1c0,1.7 -0.8,2.5 -2.3,2.5c-0.4,0 -1.4,-0.3 -3.2,-0.8c-1.1,-0.4 -2.3,-0.6 -3.5,-0.8z" clip-rule="evenodd"/>
  <path id="svg_4" fill-rule="evenodd" fill="#FFE64C" d="m62,60.9l0,-7.8c-0.9,0.2 -1.8,0.6 -2.5,1.1c-1.3,0.9 -1.9,2 -1.9,3.4c0,0.7 0.1,1.2 0.4,1.6c0.3,0.4 0.8,0.8 1.6,1c0.8,0.3 1.4,0.4 1.9,0.5l0.5,0.2z" clip-rule="evenodd"/>
  <path id="svg_5" fill-rule="evenodd" fill="#FFE64C" d="m69.1,67.3c-0.7,-0.4 -1.8,-0.8 -3.1,-1.1l0,8.6c1.1,-0.2 2.1,-0.5 2.9,-1.1c1.3,-0.8 1.9,-1.9 1.9,-3.4c0.1,-1.4 -0.5,-2.4 -1.7,-3z" clip-rule="evenodd"/>
  <path id="svg_6" fill-rule="evenodd" fill="#FFE64C" d="m64,32.6c-8.7,0 -16.5,3.5 -22.2,9.2c-5.7,5.7 -9.2,13.5 -9.2,22.2c0,8.7 3.5,16.5 9.2,22.2c5.7,5.7 13.5,9.2 22.2,9.2c8.7,0 16.5,-3.5 22.2,-9.2c5.7,-5.7 9.2,-13.5 9.2,-22.2c0,-8.7 -3.5,-16.5 -9.2,-22.2c-5.7,-5.7 -13.5,-9.2 -22.2,-9.2zm20,11.4c5.1,5.1 8.3,12.2 8.3,20c0,7.8 -3.2,14.9 -8.3,20c-5.1,5.1 -12.2,8.3 -20,8.3c-7.8,0 -14.9,-3.2 -20,-8.3c-5.1,-5.1 -8.3,-12.2 -8.3,-20c0,-7.8 3.2,-14.9 8.3,-20c5.1,-5.1 12.2,-8.3 20,-8.3c7.8,0 14.9,3.2 20,8.3z" clip-rule="evenodd"/>
  <ellipse stroke="null" ry="21.977857" rx="17.435766" id="svg_7" cy="63.267406" cx="63.413925" stroke-opacity="null" stroke-width="null" fill="#ffe64c"/>
  <text stroke="null" font-weight="bold" xml:space="preserve" text-anchor="start" font-family="Helvetica, Arial, sans-serif" font-size="39" id="svg_8" y="77.626269" x="48.908536" stroke-opacity="null" stroke-width="0" fill="#2b2d03">G</text>
  <rect id="svg_9" height="38.974066" width="4.395571" y="44.21993" x="61.509176" stroke-opacity="null" stroke-width="null" stroke="null" fill="#2b2d03"/>
 </g>
</svg>